<svg id="Layer_1" data-name="Layer 1" xmlns="http://www.w3.org/2000/svg" xmlns:xlink="http://www.w3.org/1999/xlink" viewBox="0 0 34.02 44.79"><defs><style>.cls-1{fill:none;}.cls-2{clip-path:url(#clip-path);}.cls-3{fill:#e54c3a;}.cls-4{fill:gray;}</style><clipPath id="clip-path"><rect class="cls-1" width="34.02" height="44.79"/></clipPath></defs><title>JobBoardBA</title><g class="cls-2"><path class="cls-3" d="M27,30.35a0.82,0.82,0,0,0-1.56.48l2.5,8.06-3.7-2.17a0.82,0.82,0,0,0-1.17.39L21.2,41.5l-2.42-8.56a0.81,0.81,0,0,0-.22-0.37l-1.38-1.32a0.82,0.82,0,0,0-1.34.34l-3.15,9.66-2.05-4.19a0.82,0.82,0,0,0-1.18-.33L6,39l2.6-8.14A0.82,0.82,0,0,0,7,30.34L3.72,40.66a0.82,0.82,0,0,0,1.22.94l4.62-3,2.53,5.17a0.82,0.82,0,0,0,1.51-.11L17,33.34l0.28,0.27,3,10.58a0.82,0.82,0,0,0,.74.59h0a0.82,0.82,0,0,0,.75-0.5l2.4-5.68,4.72,2.77a0.82,0.82,0,0,0,1.19-.95Z"/><path class="cls-4" d="M30.27,20.36h-0.2a0.81,0.81,0,0,0-.84.54,0.82,0.82,0,0,0,.31.95,2.12,2.12,0,0,1-1.2,3.87,2.09,2.09,0,0,1-.92-0.21,0.82,0.82,0,0,0-1,1.22,2.09,2.09,0,0,1,.4,1.23A2.12,2.12,0,0,1,23,29.28a0.82,0.82,0,0,0-1.44.66,2.39,2.39,0,0,1,0,.42,2.12,2.12,0,0,1-4.17.53,0.82,0.82,0,0,0-.73-0.61H16.67a0.82,0.82,0,0,0-.75.49,2.12,2.12,0,0,1-4.06-.85c0-.07,0-0.15,0-0.22a0.82,0.82,0,0,0-1.46-.58,2.1,2.1,0,0,1-1.66.8,2.12,2.12,0,0,1-2-2.91,0.82,0.82,0,0,0-1-1.09A2.12,2.12,0,0,1,4,22.18a0.82,0.82,0,0,0-.41-1.48,2.12,2.12,0,0,1-.48-4.12,0.82,0.82,0,0,0,.1-1.52,2.12,2.12,0,0,1,.9-4l0.31,0a0.83,0.83,0,0,0,.82-0.42,0.82,0.82,0,0,0-.09-0.92,2.1,2.1,0,0,1-.49-1.36A2.12,2.12,0,0,1,7.86,6.55a0.82,0.82,0,0,0,1.23-.84,2,2,0,0,1,0-.33,2.12,2.12,0,0,1,3.86-1.21,0.82,0.82,0,0,0,1.49-.45,2.12,2.12,0,0,1,4.17-.47,0.82,0.82,0,0,0,1.52.18,2.12,2.12,0,0,1,4,1A2.15,2.15,0,0,1,24,5a0.82,0.82,0,0,0,1.26.9,2.09,2.09,0,0,1,1.22-.39A2.12,2.12,0,0,1,28.6,7.67a2.1,2.1,0,0,1-.66,1.53,0.83,0.83,0,0,0-.16,1,0.81,0.81,0,0,0,.94.44,2.24,2.24,0,0,1,.56-0.07,2.12,2.12,0,0,1,.89,4,0.82,0.82,0,0,0,.28,1.56,2.12,2.12,0,0,1-.17,4.23M32.18,15A3.75,3.75,0,0,0,30,9a3.76,3.76,0,0,0-4.3-5,3.75,3.75,0,0,0-6.15-2.46,3.75,3.75,0,0,0-6.43.62A3.75,3.75,0,0,0,7.49,4.67,3.75,3.75,0,0,0,3.19,9.5a3.75,3.75,0,0,0-1.84,6.21A3.76,3.76,0,0,0,2,21.92a3.75,3.75,0,0,0,3,5.73c0,0.06,0,.11,0,0.17a3.76,3.76,0,0,0,5.44,3.36,3.75,3.75,0,0,0,6.11,1.49,3.75,3.75,0,0,0,6.58-1.3,3.76,3.76,0,0,0,5.3-3.43,3.69,3.69,0,0,0,0-.6,3.76,3.76,0,0,0,3.23-5.6A3.75,3.75,0,0,0,32.18,15"/><path class="cls-4" d="M17,27a9.9,9.9,0,1,1,9.9-9.9A9.91,9.91,0,0,1,17,27M17,5.53A11.54,11.54,0,1,0,28.54,17.06,11.55,11.55,0,0,0,17,5.53"/></g></svg>