<svg id="Layer_1" data-name="Layer 1" xmlns="http://www.w3.org/2000/svg" xmlns:xlink="http://www.w3.org/1999/xlink" viewBox="0 0 41.17 47.06"><defs><style>.cls-1{fill:none;}.cls-2{fill:gray;}.cls-3{clip-path:url(#clip-path);}.cls-4{fill:#e54c3a;}.cls-5{fill:#364040;}</style><clipPath id="clip-path"><rect class="cls-1" width="41.17" height="47.06"/></clipPath></defs><title>JobBoardBA</title><path class="cls-2" d="M11.76,26.47H29.41V20.59H11.76v5.88Zm19.12,1.47H10.29V19.12H30.88v8.82Z"/><g class="cls-3"><path class="cls-4" d="M8.83,21v1.47H5.88a1.94,1.94,0,0,1-2.2-1.87V12.81L2,14.49l-1-1,2.94-2.94a0.74,0.74,0,0,1,1,0l2.94,2.94-1,1L5.15,12.81v7.78c0,0.4.32,0.4,0.73,0.4H8.83Z"/><path class="cls-4" d="M40.23,13.45l-1,1-1.68-1.68v7.78a2,2,0,0,1-2.21,1.87H32.36V21h2.93c0.4,0,.74,0,0.74-0.4V12.81l-1.69,1.68-1-1L36.76,10Z"/></g><polygon class="cls-4" points="24.05 13.45 23.01 14.49 21.33 12.81 21.33 17.31 19.86 17.31 19.86 12.81 18.17 14.49 17.13 13.45 20.59 9.99 24.05 13.45"/><g class="cls-3"><path class="cls-4" d="M5.15,26.47v7.79l1.68-1.69,1,1L4.93,36.55a0.74,0.74,0,0,1-1,0L0.95,33.61l1-1,1.69,1.69V26.47a2.52,2.52,0,0,1,2.2-2.54H8.83v1.47H5.88a1.1,1.1,0,0,0-.73,1.07"/><path class="cls-4" d="M40.23,33.61l-3.46,3.46L33.3,33.61l1-1L36,34.25V26.47a1.11,1.11,0,0,0-.74-1.07H32.36V23.92h2.93a2.53,2.53,0,0,1,2.21,2.54v7.79l1.68-1.69Z"/></g><polygon class="cls-4" points="24.05 33.61 20.59 37.07 17.12 33.61 18.17 32.56 19.86 34.25 19.86 29.07 21.33 29.07 21.33 34.25 23.01 32.56 24.05 33.61"/><g class="cls-3"><path class="cls-2" d="M4.41,1.47A2.94,2.94,0,1,0,7.35,4.41,2.94,2.94,0,0,0,4.41,1.47m0,7.35A4.41,4.41,0,1,1,8.82,4.41,4.42,4.42,0,0,1,4.41,8.82"/><path class="cls-2" d="M20.59,1.47a2.94,2.94,0,1,0,2.94,2.94,2.94,2.94,0,0,0-2.94-2.94m0,7.35A4.41,4.41,0,1,1,25,4.41a4.42,4.42,0,0,1-4.41,4.41"/><path class="cls-2" d="M36.76,1.47A2.94,2.94,0,1,0,39.7,4.41a2.94,2.94,0,0,0-2.94-2.94m0,7.35a4.41,4.41,0,1,1,4.41-4.41,4.42,4.42,0,0,1-4.41,4.41"/><path class="cls-2" d="M4.41,39.7a2.94,2.94,0,1,0,2.94,2.94A2.94,2.94,0,0,0,4.41,39.7m0,7.35a4.41,4.41,0,1,1,4.41-4.41,4.42,4.42,0,0,1-4.41,4.41"/><path class="cls-2" d="M20.59,39.7a2.94,2.94,0,1,0,2.94,2.94,2.94,2.94,0,0,0-2.94-2.94m0,7.35A4.41,4.41,0,1,1,25,42.64a4.42,4.42,0,0,1-4.41,4.41"/><path class="cls-2" d="M36.76,39.7a2.94,2.94,0,1,0,2.94,2.94,2.94,2.94,0,0,0-2.94-2.94m0,7.35a4.41,4.41,0,1,1,4.41-4.41,4.42,4.42,0,0,1-4.41,4.41"/></g><rect class="cls-5" x="19.85" y="22.79" width="1.47" height="1.47"/><rect class="cls-5" x="16.91" y="22.79" width="1.47" height="1.47"/><rect class="cls-5" x="22.79" y="22.79" width="1.47" height="1.47"/></svg>