<svg id="Layer_1" data-name="Layer 1" xmlns="http://www.w3.org/2000/svg" xmlns:xlink="http://www.w3.org/1999/xlink" viewBox="0 0 43.29 34.58"><defs><style>.cls-1{fill:none;}.cls-2{clip-path:url(#clip-path);}.cls-3{fill:gray;}.cls-4{fill:#e54c3a;}</style><clipPath id="clip-path"><rect class="cls-1" width="43.29" height="34.58"/></clipPath></defs><title>JobBoardBA</title><g class="cls-2"><path class="cls-3" d="M28.7,9.81a3.34,3.34,0,0,1,6.68,0,3.34,3.34,0,0,1-6.68,0m13.65-.42L41.92,7.06a0.62,0.62,0,0,0-.72-0.49L39,6.94a7.3,7.3,0,0,0-.77-1.34L39.69,4a0.59,0.59,0,0,0-.08-0.84L37.73,1.59a0.64,0.64,0,0,0-.88.07l-1.4,1.6A7.64,7.64,0,0,0,34,2.72V0.6A0.61,0.61,0,0,0,33.33,0H30.87a0.61,0.61,0,0,0-.62.6V2.69a7.62,7.62,0,0,0-1.51.52L27.31,1.58a0.64,0.64,0,0,0-.88-0.07L24.56,3a0.59,0.59,0,0,0-.08.85L25.9,5.5a7.14,7.14,0,0,0-.79,1.31l-2.22-.38a0.62,0.62,0,0,0-.72.49L21.74,9.25a0.6,0.6,0,0,0,.5.69l2.23,0.38a7,7,0,0,0,.26,1.47l-2,1.11a0.59,0.59,0,0,0-.23.82l1.23,2.05a0.64,0.64,0,0,0,.85.22l2-1.11a7.54,7.54,0,0,0,1.16.95L26.93,18a0.6,0.6,0,0,0,.37.77l2.31,0.81a0.63,0.63,0,0,0,.8-0.36l0.79-2.09a7.79,7.79,0,0,0,.84,0l0.67,0,0.8,2.12a0.63,0.63,0,0,0,.8.36l2.31-.81A0.6,0.6,0,0,0,37,18l-0.78-2.08A7.55,7.55,0,0,0,37.4,15l2,1.12a0.64,0.64,0,0,0,.85-0.22l1.23-2A0.59,0.59,0,0,0,41.25,13l-1.95-1.08a7,7,0,0,0,.3-1.48l2.24-.38a0.6,0.6,0,0,0,.51-0.69"/><path class="cls-4" d="M8.84,9.81a2.12,2.12,0,1,1,2.12,2,2.08,2.08,0,0,1-2.12-2m8.66-.26L17.23,8.06a0.4,0.4,0,0,0-.46-0.31L15.4,8a4.5,4.5,0,0,0-.49-0.85l0.91-1a0.37,0.37,0,0,0,0-.53l-1.19-1a0.41,0.41,0,0,0-.56,0l-0.89,1a5,5,0,0,0-1-.35V4a0.39,0.39,0,0,0-.4-0.38H10.22A0.39,0.39,0,0,0,9.83,4V5.29a4.85,4.85,0,0,0-1,.33L8,4.58a0.4,0.4,0,0,0-.56,0l-1.2,1a0.37,0.37,0,0,0,0,.54l0.9,1a4.59,4.59,0,0,0-.5.83L5.15,7.67A0.4,0.4,0,0,0,4.69,8L4.42,9.46a0.38,0.38,0,0,0,.32.44l1.41,0.24a4.42,4.42,0,0,0,.17.93l-1.27.7a0.37,0.37,0,0,0-.15.52l0.78,1.3a0.41,0.41,0,0,0,.54.14L7.49,13a4.79,4.79,0,0,0,.73.6L7.72,15a0.38,0.38,0,0,0,.23.49L9.42,16a0.4,0.4,0,0,0,.51-0.23l0.5-1.33,0.53,0,0.43,0,0.51,1.35a0.4,0.4,0,0,0,.51.23l1.47-.51A0.38,0.38,0,0,0,14.11,15l-0.5-1.32a4.81,4.81,0,0,0,.75-0.59l1.27,0.71a0.4,0.4,0,0,0,.54-0.14L17,12.37a0.37,0.37,0,0,0-.15-0.52l-1.24-.69a4.3,4.3,0,0,0,.19-0.94L17.18,10a0.38,0.38,0,0,0,.32-0.44"/><path class="cls-3" d="M39.11,28A1.78,1.78,0,1,1,41,26.22,1.81,1.81,0,0,1,39.11,28m0-6.62H15.14a8.77,8.77,0,0,0-7.08-3.52A8.69,8.69,0,0,0,0,23.11H5A2.74,2.74,0,0,1,7.83,25.8v0.83A2.74,2.74,0,0,1,5,29.32H0a8.69,8.69,0,0,0,8.06,5.26,8.78,8.78,0,0,0,7.08-3.52H39.09c2.32,0,4.2-1.38,4.2-3.08V24.45c0-1.7-1.88-3.08-4.2-3.08"/></g></svg>