<svg id="Layer_1" data-name="Layer 1" xmlns="http://www.w3.org/2000/svg" xmlns:xlink="http://www.w3.org/1999/xlink" viewBox="0 0 31.36 37"><defs><style>.cls-1{fill:none;}.cls-2{clip-path:url(#clip-path);}.cls-3{fill:gray;}.cls-4{fill:#e54c3a;}</style><clipPath id="clip-path"><rect class="cls-1" width="31.36" height="37"/></clipPath></defs><title>JobBoardBA</title><g class="cls-2"><path class="cls-3" d="M19.69,29.74H11.82a0.84,0.84,0,0,0-.85.83v0.25a0.84,0.84,0,0,0,.85.83h7.87a0.84,0.84,0,0,0,.85-0.83V30.56a0.84,0.84,0,0,0-.85-0.83"/><path class="cls-3" d="M18.7,32.42H12.81a0.88,0.88,0,0,0-.92.83v0.25a0.88,0.88,0,0,0,.92.83H18.7a0.88,0.88,0,0,0,.92-0.83V33.24a0.88,0.88,0,0,0-.92-0.83"/><path class="cls-3" d="M17.48,35.1H14a0.93,0.93,0,0,0-1,.83v0.25A0.93,0.93,0,0,0,14,37h3.44a0.93,0.93,0,0,0,1-.83V35.93a0.93,0.93,0,0,0-1-.83"/><path class="cls-3" d="M15.76,5.86A10,10,0,0,0,5.6,15.77a9.72,9.72,0,0,0,2,5.85A19.58,19.58,0,0,1,10.7,28.3a0.84,0.84,0,0,0,.83.67H20a0.84,0.84,0,0,0,.83-0.67A19.58,19.58,0,0,1,24,21.62a9.72,9.72,0,0,0,2-5.85A10,10,0,0,0,15.76,5.86m0,1.56a8.47,8.47,0,0,1,8.56,8.36,8.16,8.16,0,0,1-1.65,4.93l0,0,0,0a22.5,22.5,0,0,0-3.23,6.62H12.13A22.5,22.5,0,0,0,8.9,20.79l0,0,0,0A8.16,8.16,0,0,1,7.2,15.77a8.47,8.47,0,0,1,8.56-8.36"/><path class="cls-4" d="M15.76,0A0.71,0.71,0,0,0,15,.7V3.05a0.72,0.72,0,0,0,1.44,0V0.7A0.71,0.71,0,0,0,15.76,0"/><path class="cls-4" d="M24.63,2.76a0.73,0.73,0,0,0-.59.3L22.66,5a0.69,0.69,0,0,0,.18,1,0.73,0.73,0,0,0,1-.17l1.38-1.92a0.7,0.7,0,0,0-.18-1,0.73,0.73,0,0,0-.41-0.13"/><path class="cls-4" d="M30.27,10A0.74,0.74,0,0,0,30,10l-2.26.8a0.7,0.7,0,0,0-.43.9,0.73,0.73,0,0,0,.92.42l2.26-.8a0.7,0.7,0,0,0,.43-0.9A0.72,0.72,0,0,0,30.27,10"/><path class="cls-4" d="M28.32,18.48a0.72,0.72,0,0,0-.7.52,0.7,0.7,0,0,0,.51.86l2.32,0.61,0.19,0a0.72,0.72,0,0,0,.7-0.52,0.7,0.7,0,0,0-.51-0.86l-2.32-.61-0.19,0"/><path class="cls-4" d="M6.87,2.69a0.73,0.73,0,0,0-.41.13,0.7,0.7,0,0,0-.18,1L7.66,5.72a0.73,0.73,0,0,0,1,.17,0.69,0.69,0,0,0,.18-1L7.46,3a0.73,0.73,0,0,0-.59-0.3"/><path class="cls-4" d="M1.17,9.86a0.72,0.72,0,0,0-.68.46,0.7,0.7,0,0,0,.43.9L3.19,12a0.73,0.73,0,0,0,.92-0.42,0.7,0.7,0,0,0-.43-0.9l-2.26-.8a0.74,0.74,0,0,0-.25,0"/><path class="cls-4" d="M3,18.33l-0.19,0L0.54,19a0.7,0.7,0,0,0-.51.86,0.72,0.72,0,0,0,.7.52l0.19,0,2.32-.61a0.7,0.7,0,0,0,.51-0.86A0.72,0.72,0,0,0,3,18.33"/></g></svg>