<svg id="Layer_1" data-name="Layer 1" xmlns="http://www.w3.org/2000/svg" xmlns:xlink="http://www.w3.org/1999/xlink" viewBox="0 0 49.15 42.41"><defs><style>.cls-1{fill:none;}.cls-2{clip-path:url(#clip-path);}.cls-3{fill:gray;}.cls-4{fill:#e54c3a;}</style><clipPath id="clip-path"><rect class="cls-1" width="49.15" height="42.41"/></clipPath></defs><title>JobBoardBA</title><g class="cls-2"><path class="cls-3" d="M22.86,39.1H6a2.36,2.36,0,0,1-2.36-2.36V17.42H5.08V36.74a1,1,0,0,0,1,1H22.86V39.1Zm23.93,0H44.41V37.7h2.38a1,1,0,0,0,1-1v-28a1,1,0,0,0-1-1H18.94V6.42H46.79a2.36,2.36,0,0,1,2.36,2.36v28a2.36,2.36,0,0,1-2.36,2.36"/></g><polygon class="cls-3" points="22.22 36.6 7.83 36.6 7.83 19.19 9.22 19.19 9.22 35.21 22.22 35.21 22.22 36.6"/><polygon class="cls-3" points="45.53 35.9 44.14 35.9 44.14 10.31 19.48 10.31 19.48 8.92 45.53 8.92 45.53 35.9"/><rect class="cls-3" x="5.64" y="21.5" width="1.39" height="2.51"/><rect class="cls-3" x="45.85" y="22.02" width="1.39" height="1.49"/><g class="cls-2"><path class="cls-4" d="M43.49,38.52a3.87,3.87,0,0,0-1.28-1.21h0a5.05,5.05,0,0,1-.95-0.2,2.6,2.6,0,0,0,.51-1.55,2.67,2.67,0,1,0-4.84,1.58c-0.32.06-.64,0.15-0.94,0.24a2.11,2.11,0,0,0-1.18,1,4.91,4.91,0,0,1,4.39-7.07,4.88,4.88,0,0,1,4.29,7.24m-5.68-2.94a1.28,1.28,0,1,1,1.28,1.28,1.29,1.29,0,0,1-1.28-1.28M42.11,40a4.43,4.43,0,0,1-2.91,1h0A3.85,3.85,0,0,1,38.4,41a3.73,3.73,0,0,1-2.31-1.17V39.41a0.77,0.77,0,0,1,.39-0.7,9,9,0,0,1,5.29,0,0.73,0.73,0,0,1,.35.7V40Zm-9.83-1.45A3.87,3.87,0,0,0,31,37.31h0a4.92,4.92,0,0,1-.94-0.2,2.6,2.6,0,0,0,.5-1.55,2.67,2.67,0,1,0-4.83,1.58c-0.32.07-.64,0.14-1,0.24a2.13,2.13,0,0,0-1.18,1,4.9,4.9,0,0,1,7.86-5.63,4.85,4.85,0,0,1,.83,5.8m-5.68-2.94a1.28,1.28,0,1,1,1.28,1.28,1.28,1.28,0,0,1-1.28-1.28M31,40a4.62,4.62,0,0,1-3,1h0A6.26,6.26,0,0,1,27,41,6.45,6.45,0,0,1,24.5,39.8V39.41a1,1,0,0,1,.58-0.7,9.45,9.45,0,0,1,5.42,0,0.85,0.85,0,0,1,.49.7V40Zm12.66-8.24a6.3,6.3,0,0,0-10,1.58,6.33,6.33,0,0,0-1.15-1.58,6.29,6.29,0,0,0-9.14,8.64l0.06,0.07,0.19,0.19A6,6,0,0,0,28,42.41h0a6.09,6.09,0,0,0,4.44-1.8h0a6.19,6.19,0,0,0,1.12-1.53,6.12,6.12,0,0,0,.9,1.32l0.06,0.07,0.19,0.19a6.12,6.12,0,0,0,2.85,1.6,6.23,6.23,0,0,0,1.59.17h0a6.09,6.09,0,0,0,4.45-1.8h0a6.27,6.27,0,0,0,0-8.85"/><path class="cls-4" d="M17.09,15.08V13.87a3.46,3.46,0,0,0-2.16-3h0a16.56,16.56,0,0,1-2.34-.51,4,4,0,1,0-5.44,0,17,17,0,0,0-2.32.53,3.23,3.23,0,0,0-2.1,2.93v0.69A7.82,7.82,0,0,1,1.42,10,8.64,8.64,0,0,1,18.7,10a9.58,9.58,0,0,1-1.62,5M7.25,7.48a2.61,2.61,0,1,1,2.6,2.6,2.61,2.61,0,0,1-2.6-2.6m8.44,9.1a4.45,4.45,0,0,1-1.85,1.09V14.6H12.45v3.67a5.61,5.61,0,0,1-2.41.5h0a9.32,9.32,0,0,1-3.14-.62V14.6H5.5v2.89a11.61,11.61,0,0,1-1.39-1.21v-2.4a1.85,1.85,0,0,1,1.12-1.61,16.24,16.24,0,0,1,9.31,0,1.85,1.85,0,0,1,1.15,1.6v2.71ZM17.13,2.94A10,10,0,0,0,2.93,3a10,10,0,0,0,0,14.17,9.94,9.94,0,0,0,2.71,1.94l0.1,0c0.21,0.1.35,0.19,0.57,0.28l0.57,0.28V19.62a10.93,10.93,0,0,0,3.12.54h0a6.49,6.49,0,0,0,2.41-.43v0l0.67-.21c0.26-.09.58-0.18,0.83-0.3l0.09,0a10.19,10.19,0,0,0,3.1-2.12,10,10,0,0,0,0-14.17"/></g></svg>