<svg id="Layer_1" data-name="Layer 1" xmlns="http://www.w3.org/2000/svg" xmlns:xlink="http://www.w3.org/1999/xlink" viewBox="0 0 42.3 38.1"><defs><style>.cls-1{fill:none;}.cls-2{clip-path:url(#clip-path);}.cls-3{fill:gray;}.cls-4{fill:#e54c3a;}</style><clipPath id="clip-path"><rect class="cls-1" width="42.3" height="38.1"/></clipPath></defs><title>JobBoardBA</title><g class="cls-2"><path class="cls-3" d="M25.69,18.58a3.42,3.42,0,1,1,3.42-3.42,3.43,3.43,0,0,1-3.42,3.42m0-8.11a4.68,4.68,0,1,0,4.68,4.68,4.69,4.69,0,0,0-4.68-4.68"/><path class="cls-4" d="M12.88,2.61a0.63,0.63,0,1,0-.85.93l8.64,7.88a0.63,0.63,0,1,0,.85-0.93Z"/><path class="cls-4" d="M39.34,2.61L30.7,10.49a0.63,0.63,0,1,0,.85.93l8.64-7.88a0.63,0.63,0,1,0-.85-0.93"/><path class="cls-4" d="M25.61,0A0.63,0.63,0,0,0,25,.63V7.51a0.63,0.63,0,1,0,1.26,0V0.63A0.63,0.63,0,0,0,25.61,0"/><path class="cls-4" d="M19.13,15.6l-9.64.92a0.63,0.63,0,0,0,.06,1.26H9.61l9.63-.92a0.63,0.63,0,0,0-.12-1.26"/><path class="cls-4" d="M41.73,16.52L32.1,15.6A0.63,0.63,0,0,0,32,16.86l9.64,0.92h0.06a0.63,0.63,0,0,0,.06-1.26"/><path class="cls-3" d="M30,35.32H12.6V28.8h0.87a0.63,0.63,0,0,0,.46-0.2c1-1.1,2.47-2.28,3-2.28H27.85a2.41,2.41,0,0,1-.54,1.3,1.45,1.45,0,0,1-1.11.42H22.91a2.13,2.13,0,1,0,0,4.24h5.23a0.63,0.63,0,0,0,.43-0.17S29.72,31,32.2,29.17a5.2,5.2,0,0,1,3.2-1,8.9,8.9,0,0,1,3,.56ZM39.87,28a10.47,10.47,0,0,0-4.47-1.1,6.43,6.43,0,0,0-4,1.25c-2,1.5-3.13,2.48-3.55,2.85h-5a0.88,0.88,0,1,1,0-1.72h3.29a2.68,2.68,0,0,0,2-.82,4.21,4.21,0,0,0,.92-2.83,0.63,0.63,0,0,0-.63-0.6H16.93c-1.21,0-3,1.7-3.73,2.48H12a0.63,0.63,0,0,0-.63.63v7.78a0.63,0.63,0,0,0,.63.63H30.33a0.63,0.63,0,0,0,.57-0.36L40,29.06A0.63,0.63,0,0,0,39.87,28"/><path class="cls-3" d="M11.33,36.84H1.26V26.35H11.33V36.84ZM12,25.09H0.63a0.63,0.63,0,0,0-.63.63V37.47a0.63,0.63,0,0,0,.63.63H12a0.63,0.63,0,0,0,.63-0.63V25.72A0.63,0.63,0,0,0,12,25.09"/></g></svg>