<svg id="Layer_1" data-name="Layer 1" xmlns="http://www.w3.org/2000/svg" viewBox="0 0 116 119.44"><defs><style>.cls-1{fill:#c1c2c3;}.cls-2{fill:#6e6f71;}.cls-3{fill:#fff;}.cls-4{fill:#e54c3a;}</style></defs><title>Noggin Logo</title><path class="cls-1" d="M88.85,93.11c2,1.58,1.23,6.95.33,8.85a25.38,25.38,0,0,1-5.28,6.51c-2.89,2.69-7.39,4.45-11.14,6.31a20.14,20.14,0,0,1-7.39,2.41c-2.54.26-5.16,0.15-7.63,0.43-4.64.53-9.47,0.88-14.25,1.06-5.44.2-12,1.48-17.05-.73-4.36-1.9-7.64-5-11.49-7.37a19.71,19.71,0,0,1-4.45-3.11c-0.53-.56-2.06-2.74-2.25-2.43-1.58-1.22-3.68-5-4.31-7a5.16,5.16,0,0,1,0-4,15.68,15.68,0,0,0,1-1.8c0.26-.89.09-0.6,0-1.57C4.15,85.3,4.85,78.6,10.26,74.84c0.86-.6,5.61-3.86,7.08-4.86s2.4-2.43,4.25-3.25A38.37,38.37,0,0,1,32,64a48.89,48.89,0,0,1,13.27.31C49.84,65,54.68,64.93,59,66c1.73,0.41,2.64,1.26,4.25,1.75,2.29,0.69,5,.44,7.33,1.07C75,70,78.64,71,82.39,73.31a14,14,0,0,1,5.87,7.07c1.14,2.58,2,6.74.4,9.35a5.31,5.31,0,0,0-.37,1.79,2.43,2.43,0,0,0,.57,1.58"/><path class="cls-2" d="M90,93.11c1.57,1.58,1,6.95.27,8.85a25.18,25.18,0,0,1-4.21,6.51c-2.32,2.69-5.9,4.45-8.89,6.31a13.92,13.92,0,0,1-5.9,2.41c-2,.26-4.11.15-6.07,0.43-3.71.53-7.56,0.88-11.37,1.06-4.34.2-9.56,1.48-13.6-.73-3.48-1.9-6.1-5-9.17-7.37a16.24,16.24,0,0,1-3.56-3.11c-0.43-.56-1.63-2.74-1.79-2.43-1.25-1.22-2.93-5-3.44-7a6.33,6.33,0,0,1,0-4,15.9,15.9,0,0,0,.84-1.8,2.65,2.65,0,0,0,0-1.57C22.47,85.3,23,78.6,27.35,74.84,28,74.24,31.83,71,33,70s1.92-2.43,3.39-3.25A25.82,25.82,0,0,1,44.69,64a31.21,31.21,0,0,1,10.59.31c3.65,0.67,7.51.62,11,1.65,1.38,0.41,2.1,1.26,3.39,1.75,1.83,0.69,4,.44,5.85,1.07C79,70,81.9,71,84.89,73.31c2.52,2,3.6,4,4.69,7.07,0.92,2.58,1.56,6.74.32,9.35a6.44,6.44,0,0,0-.29,1.79A2.87,2.87,0,0,0,90,93.11"/><path class="cls-3" d="M63.07,67.5a2.18,2.18,0,0,0,.13.72,3.64,3.64,0,0,0-.9-0.08l0,0.92a2.87,2.87,0,0,1,2.21.94l0.14,0.12h0l0.56-.73,0,0A2.83,2.83,0,0,1,64,67.5V67.45l-0.92-.05V67.5Z"/><path class="cls-3" d="M68.86,68.1a16.13,16.13,0,0,1,.52,3.07L69.23,72a3.14,3.14,0,0,0-.1,1.65,5.49,5.49,0,0,0,2,2.18A7.67,7.67,0,0,1,72.47,77l0.73-.56a8,8,0,0,0-1.49-1.35A4.92,4.92,0,0,1,70,73.33a2.61,2.61,0,0,1,.12-1.14l0.18-1a16.55,16.55,0,0,0-.54-3.31Z"/><path class="cls-3" d="M61,74a6.19,6.19,0,0,1,1.84,2.41l0.74,1.29,0.2,0A21.79,21.79,0,0,1,69.68,80a20.87,20.87,0,0,0,7.24,2.51A7.75,7.75,0,0,0,82.71,80c1.34-1.45.8-4.69-.09-6.38L81.8,74c0.85,1.61,1.14,4.35.23,5.33a6.75,6.75,0,0,1-5,2.27,20,20,0,0,1-6.91-2.42,24,24,0,0,0-6-2.3L63.61,76a6.86,6.86,0,0,0-2.18-2.75Z"/><path class="cls-3" d="M74.49,73.66A9.45,9.45,0,0,0,76.21,75a5.84,5.84,0,0,1,2,1.81l0.8-.44A6.43,6.43,0,0,0,76.7,74.2,8.56,8.56,0,0,1,75.15,73Z"/><path class="cls-3" d="M61.89,78.83a5.2,5.2,0,0,0-1.42,1.67l0.83,0.39a4.4,4.4,0,0,1,1.2-1.38,4.91,4.91,0,0,0,1.42-1.7l-0.85-.36a4.24,4.24,0,0,1-1.17,1.38"/><path class="cls-3" d="M58.82,80.23c1.37,0.22,4.43,1.82,4.94,2.95l0.83-.37c-0.69-1.58-4.16-3.25-5.63-3.48Z"/><path class="cls-3" d="M64.87,84.7a2.7,2.7,0,0,1-1.18,1.44l-0.59.51-0.74.84A3.82,3.82,0,0,1,60.28,89l0.29,0.87a4.69,4.69,0,0,0,2.51-1.79l0.67-.77,0.52-.45c0.69-.57,1.55-1.27,1.52-2.18Z"/><path class="cls-3" d="M51.8,68.54a2.39,2.39,0,0,0-.63,2.89,3,3,0,0,1,.09,2.07,3.13,3.13,0,0,1-.82,1.14c-0.8.82-1.79,1.84-1.34,4.75L50,79.25c-0.37-2.46.33-3.2,1.1-4a3.52,3.52,0,0,0,1-4.12,1.48,1.48,0,0,1,.38-1.94c1.39-1.32,2.69-2.56,3.23-4.63l-0.89-.23c-0.47,1.82-1.63,2.92-3,4.2"/><path class="cls-3" d="M46.9,78a35,35,0,0,1,3.91,2.56l0.55-.74a34.85,34.85,0,0,0-4.05-2.65Z"/><path class="cls-3" d="M48.74,80.06c-0.15,1.46-.32,3.12-1.15,3.87s-2.71.8-4.15,0.76H42.66V85.6h0.76c1.6,0,3.59.08,4.79-1s1.28-2.83,1.44-4.45l0.2-1.51-0.9-.19Z"/><path class="cls-3" d="M49.85,69.82a7.22,7.22,0,0,0-2.37,1.5L47,72a1.94,1.94,0,0,1-.68.78,4.54,4.54,0,0,1-1.76.08,6.6,6.6,0,0,0-1.72,0c-1.31.29-3.94,0.87-4.57,2.36a1.92,1.92,0,0,0,.23,1.83,3.15,3.15,0,0,0,2.1,1.12,4.61,4.61,0,0,1,1.21.41A5.53,5.53,0,0,1,43.22,80l0.31,0.39,0.71-.59-0.3-.37a6.69,6.69,0,0,0-1.68-1.61,5.54,5.54,0,0,0-1.46-.51,2.47,2.47,0,0,1-1.54-.71,1,1,0,0,1-.17-1c0.44-1,2.94-1.6,3.88-1.8a5.94,5.94,0,0,1,1.52,0,4.92,4.92,0,0,0,2.19-.17,2.68,2.68,0,0,0,1.08-1.12l0.39-.55a6.38,6.38,0,0,1,2.08-1.29L52,69.74,51.43,69Z"/><path class="cls-3" d="M35.34,85.69c-0.28,1.31.8,1.94,1.59,2.4l0.55,0.35a13.7,13.7,0,0,1,2.62,2.74L41,92.26l0.39-.82,0.42-.72a1.8,1.8,0,0,0,.53-1.46l-0.85.36,0-.14a4.93,4.93,0,0,1-.43.75l-0.21.35A14.2,14.2,0,0,0,38,87.68l-0.63-.39c-0.77-.45-1.17-0.74-1.17-1.21a1,1,0,0,1,0-.2c0.33-1.55,3.48-3.09,5.14-3.52l-0.23-.89c-1.63.41-5.36,2-5.82,4.21"/><path class="cls-3" d="M44.84,90.88l-0.39.32,0.35,0.36a5,5,0,0,0,1.47,1.09c0.55,0.28.79,0.41,1.14,2.37l0.91-.15c-0.39-2.21-.76-2.58-1.63-3a4.77,4.77,0,0,1-.9-0.63,8.86,8.86,0,0,0,1.91-3.95L46.81,87c-0.45,1.66-.88,3-2,3.87"/><path class="cls-3" d="M63.44,65.57c0.16,2.54-1.46,3-3.52,3.57l-1.33.4c-1.23.42-1.46,0.67-1.48,1.57l-0.16,1.21a54.38,54.38,0,0,1-2.3,5.57A2,2,0,0,0,55,80.43a2.93,2.93,0,0,1,.82,1.73c0.21,1.82,0,2.36-.1,2.49a3.24,3.24,0,0,1-1,.76,4.07,4.07,0,0,0-1.5,1.29L53,87.08a12.48,12.48,0,0,0-1.93,4.13L52,91.33a12,12,0,0,1,1.8-3.77L54,87.17a3.51,3.51,0,0,1,1.2-1,3.69,3.69,0,0,0,1.27-1.05,5.25,5.25,0,0,0,.24-3.08,3.82,3.82,0,0,0-1-2.21,1.11,1.11,0,0,1-.25-1.55,54.2,54.2,0,0,0,2.36-5.75L58,71.13c0-.43,0-0.43.86-0.72L60.17,70c2.06-.58,4.39-1.23,4.18-4.52Z"/><path class="cls-3" d="M67.62,84.26L69,85.59A10.68,10.68,0,0,0,73.94,89l0.24-.89c-2-.51-3.14-1.72-4.53-3.11l-1.41-1.37Z"/><path class="cls-3" d="M62.89,87.79a8.73,8.73,0,0,1,2,2.29l0.83-.4a9.9,9.9,0,0,0-2.27-2.6Z"/><path class="cls-3" d="M79,85.25l0.69,1.1a11.66,11.66,0,0,0,1.83,2.51l0.63-.68a10.88,10.88,0,0,1-1.67-2.3L79.8,84.73Z"/><path class="cls-3" d="M82.59,79.84H82.51l-0.44.23a2.91,2.91,0,0,1-1.28.48l0,0.92a3.79,3.79,0,0,0,1.71-.58l0.25-.13A3.18,3.18,0,0,1,85.9,82l1.2,1.11A9.46,9.46,0,0,0,89,84.34a0.43,0.43,0,0,1,.29.25l0.81-.44a1.3,1.3,0,0,0-.7-0.64,9,9,0,0,1-1.72-1.11l-1.11-1a4.08,4.08,0,0,0-4-1.54"/><path class="cls-3" d="M82.64,91.06l0.29,0.87c3-1,3.49-2.32,4.11-3.86l-0.86-.34c-0.6,1.5-1,2.48-3.55,3.34"/><path class="cls-3" d="M79.64,86.62a0.84,0.84,0,0,1-1.11.3l-0.23.89a1.64,1.64,0,0,0,1.94-.5l0.19-.17-0.6-.7Z"/><path class="cls-3" d="M41.74,64.46l0,0.78a7.83,7.83,0,0,0,.2,2.57l0.88-.28a7.13,7.13,0,0,1-.15-2.26l0-.82H41.74Z"/><path class="cls-3" d="M49.19,65.59a4,4,0,0,1-3.07,2.09,9.45,9.45,0,0,1-1.85-.14,6.76,6.76,0,0,0-3,0,4.69,4.69,0,0,0-1.69,1.31,3.51,3.51,0,0,1-1.89,1.28L37.84,71a4.37,4.37,0,0,0,2.39-1.55,3.9,3.9,0,0,1,1.35-1.08,6.5,6.5,0,0,1,2.57,0,10.16,10.16,0,0,0,2.06.14,4.85,4.85,0,0,0,3.71-2.46,6.08,6.08,0,0,1,1.87-1.86l-0.45-.8a6.7,6.7,0,0,0-2.15,2.12"/><polygon class="cls-3" points="70.71 70.46 69.85 70.48 69.85 71.4 71.6 71.36 71.6 70.44 70.71 70.46"/><path class="cls-3" d="M51.72,91.63c2.68,2,4,5.88,3,8.63a2.47,2.47,0,0,1-.54.92c-0.56.62-.29,0.91,0.62,1.9s1.18,1.44.86,2.76l-0.31.92c-0.37,1-.84,2.23.1,3.34l0.69-.6a1.32,1.32,0,0,1-.33-0.89,4.65,4.65,0,0,1,.4-1.53l0.33-1a4.77,4.77,0,0,0,.16-1.16,3.36,3.36,0,0,0-1.22-2.41l-0.62-.71a3.34,3.34,0,0,0,.7-1.19A6.57,6.57,0,0,0,56,98.31a9.66,9.66,0,0,0-3.71-7.41Z"/><path class="cls-3" d="M42.62,95.57l2.13,2a31.15,31.15,0,0,1,2.58,2.58,10.42,10.42,0,0,1,1.58,3.69l0.38,1.27a8.11,8.11,0,0,1,.32,2.53,7,7,0,0,0,.75,3.59l0.71,1.4a5.45,5.45,0,0,0,1.65,2.27l0.59-.71a4.44,4.44,0,0,1-1.41-1.95l-0.75-1.47a6.19,6.19,0,0,1-.63-3.15,8.74,8.74,0,0,0-.36-2.81l-0.37-1.23a11.22,11.22,0,0,0-1.77-4,30.43,30.43,0,0,0-2.66-2.65l-2.07-2Z"/><path class="cls-3" d="M55.73,96.66L55.34,97l0.38,0.83,0.66-.5c0.33-.33.58-0.56,2,0.18l0.43-.81c-1.87-1-2.48-.61-3.08,0"/><path class="cls-3" d="M59.27,91.51l1,1.41c1,1.39,1.69,2.4,1.55,4.22a8,8,0,0,1-.45,2.1,7.37,7.37,0,0,0-.44,2.59H61.8a6.36,6.36,0,0,1,.4-2.3,8.78,8.78,0,0,0,.49-2.31C62.86,95.06,62,93.83,61,92.4L60,91Z"/><path class="cls-3" d="M66.75,94.55a2.48,2.48,0,0,0-.91,1.23,2.77,2.77,0,0,1-.5.81l0.59,0.7a3.19,3.19,0,0,0,.74-1.12,2.22,2.22,0,0,1,.5-0.8,2.88,2.88,0,0,1,1.1.15l1.24,0.18-0.08-.91-0.93-.16a2.69,2.69,0,0,0-1.74-.08"/><path class="cls-3" d="M77.15,93.66A2.76,2.76,0,0,1,79,95.3a4,4,0,0,1-.28,3.38c-0.34.6-.42,0.6-1.29,0.57l-0.63,0-1.68,0a16.84,16.84,0,0,1-3.64-.15c-1.78-.31-3.81-0.48-5.22.63a6.43,6.43,0,0,0-1.7,2.64l-0.43,1-0.18.35c-0.52,1-1.29,2.6-2.78,3.22l0.35,0.85c1.8-.75,2.7-2.57,3.25-3.66l0.17-.34,0.46-1a5.69,5.69,0,0,1,1.43-2.28c1.12-.89,2.9-0.73,4.5-0.44a17.7,17.7,0,0,0,3.82.15l1.66,0,0.6,0a1.83,1.83,0,0,0,2.12-1,4.89,4.89,0,0,0,.33-4.18,3.69,3.69,0,0,0-2.46-2.17Z"/><path class="cls-3" d="M68.94,91.67l0.48,0.25c2,1,4.27,2.18,4.8,4.8l0.9-.18c-0.61-3.05-3.2-4.37-5.28-5.44l-0.47-.24Z"/><path class="cls-3" d="M80,97.16L79.64,98c3.47,1.27,5.78,1.83,8.76-1.14l-0.65-.65c-2.5,2.51-4.29,2.21-7.79.93"/><path class="cls-3" d="M73.33,100.14c1.78,0.46,3.87,4.66,3.87,5.29v0.08c-0.27.22-1.7,0.49-4.69,0.35H71.9a1.55,1.55,0,0,1-1.19-.22,8.85,8.85,0,0,1-.33-2.84l-0.92-.06c0,0.26,0,2.9.58,3.53a2.27,2.27,0,0,0,1.89.52h0.54c3.15,0.16,5-.09,5.49-0.72a0.75,0.75,0,0,0,.17-0.48,0.45,0.45,0,0,0,0-.1h0s0,0,0-.05,0,0,0-.06v0c-0.08-1.18-2.33-5.55-4.54-6.13Z"/><path class="cls-3" d="M41.39,104.66l-1.76,2.43-0.91,1.22L38,109.5l-0.49.89c-0.49.73-3.07,1.88-5.67,0.68l-0.39.84c2.84,1.3,6,.25,6.82-1l0.54-1,0.62-1.07,0.9-1.21,1.54-2.12a13.93,13.93,0,0,1,3.81,2.77l0.66-.65A15.28,15.28,0,0,0,42,104.49l-0.35-.16Z"/><path class="cls-3" d="M28.32,101.12c0.72,1.94,2.3,3.08,3.83,4.17l2.08,1.63,0.63-.67-2.17-1.71c-1.47-1.06-2.87-2.06-3.51-3.74-1.37-3.7,2.12-8.11,4-9.06l-0.41-.83c-2.4,1.2-6,6.1-4.46,10.21"/><path class="cls-3" d="M31.62,72.76l0.32,0.87a3.63,3.63,0,0,1,3.39.69l0.57-.72a4.6,4.6,0,0,0-4.28-.84"/><path class="cls-3" d="M67.46,73.49a10,10,0,0,1-2.25.17l-0.08.91a10.79,10.79,0,0,0,2.46-.16l2-.18,0-.92Z"/><path class="cls-3" d="M56,85.27a4.48,4.48,0,0,1,2.36,1.67l0.76-.53a5.33,5.33,0,0,0-2.84-2Z"/><path class="cls-3" d="M32.67,85l0.77,0.35a8.73,8.73,0,0,0,1.92.74l0.2-.9a8.29,8.29,0,0,1-1.72-.67L33,84.11Z"/><path class="cls-3" d="M34.8,75.84a5.62,5.62,0,0,0-3,2.88L31,80l0.73,0.55,0.88-1.32a4.83,4.83,0,0,1,2.57-2.5,5.93,5.93,0,0,1,2.72.16L38.72,77l0.13-.91L38,76c-1.16-.24-2.47-0.5-3.24-0.12"/><path class="cls-3" d="M23.8,89a6.26,6.26,0,0,0,2.44,2.54l-0.24.4A10.28,10.28,0,0,0,24.12,97a5.32,5.32,0,0,0,.17,1.31L25.18,98c-0.53-2,.56-3.89,1.62-5.67L27.61,91,27,90.85s-1.17-.29-2.39-2.34Z"/><path class="cls-3" d="M34.31,96.75c-0.53,1.27-1,2.47.25,4a40.2,40.2,0,0,1,3.11,4.08l0.77-.5a42.43,42.43,0,0,0-3.17-4.17c-0.93-1.11-.64-1.81-0.11-3.07L35.59,96l-0.87-.29Z"/><path class="cls-3" d="M38.19,97.55c0.85,0.05,1.59,1.25,2.08,2l0.12,0.2,1.38,1.79,0.82,1,0.73-.57-0.86-1-1.3-1.68L41,99.1c-0.59-1-1.49-2.38-2.81-2.47Z"/><path class="cls-3" d="M26.52,79.43c0,0.11,0,.22,0,0.33A5,5,0,0,0,28.23,83a4.61,4.61,0,0,0-1.14,3.21,8,8,0,0,0,.1,1.22c0.24,1.45,4.38,4.21,5.75,4.35L33,90.87c-1.2-.12-4.79-2.73-4.93-3.58a4.07,4.07,0,0,1,1.06-3.93L29.6,83l-0.45-.35a4.33,4.33,0,0,1-1.7-3,3.5,3.5,0,0,1,1-2.66l-0.68-.62a4.46,4.46,0,0,0-1.24,3"/><path class="cls-3" d="M43.43,114.57a10.19,10.19,0,0,1-5.87,1.29l-0.07.92a11.3,11.3,0,0,0,6.16-1.27,7.92,7.92,0,0,1,.85.93,6.35,6.35,0,0,0,6.17,3l-0.07-.92c-3.14.24-4.33-1.29-5.38-2.63a6.76,6.76,0,0,0-1.2-1.31l-0.29-.22Z"/><path class="cls-3" d="M42.51,111.66a13.93,13.93,0,0,0,.6,2.83l0.18,0.63,0.89-.24L44,114.24a14.22,14.22,0,0,1-.58-2.63Z"/><path class="cls-3" d="M59.14,111.33c0.11,0.91,1,1.45,1.85,2,1.53,1,2.85,1.84,1.33,4.33l0.79,0.48c2-3.24-.19-4.64-1.63-5.58a2.82,2.82,0,0,1-1.43-1.36,1.81,1.81,0,0,1,.67-1.26L60,109.34a2.57,2.57,0,0,0-.91,2"/><path class="cls-3" d="M66.43,110a5.14,5.14,0,0,0,2,2l1,0.77,0.64-.66-1.14-.87a4.34,4.34,0,0,1-1.66-1.58Z"/><path class="cls-3" d="M76.09,110.66l-0.76.26-1.37.34a13.93,13.93,0,0,1-4.14.7l-0.37,0-0.61,2.2-0.44,1.51,0.9,0.24,0.42-1.49s0.3-1,.42-1.51a16.64,16.64,0,0,0,4.07-.74l1.33-.35,0.89-.29a3.51,3.51,0,0,1,1.26-.34,3.21,3.21,0,0,1,1.4.67l1.25,0.7,0.29-.87-1-.59a3.87,3.87,0,0,0-1.82-.82,4,4,0,0,0-1.68.4"/><path class="cls-3" d="M81.87,103.55a6.2,6.2,0,0,0,2.83,1.32A6,6,0,0,1,87.23,106l0.6-.69a6.66,6.66,0,0,0-2.9-1.33,5.58,5.58,0,0,1-2.45-1.12Z"/><path class="cls-3" d="M81.29,103.64l-0.86,1,0.72,0.56,0.81-.91a8.67,8.67,0,0,0,1.38-1.75l-0.8-.45a8,8,0,0,1-1.25,1.57"/><path class="cls-3" d="M74.53,69.14a2.31,2.31,0,0,1,.37,1.3,1.24,1.24,0,0,0-.08.38,2.11,2.11,0,0,0,.16.67h0c0,0.05,0,.09,0,0.15l0.88-.23,0-.38c0-.13,0-0.27,0-0.42a1.91,1.91,0,0,1,.84-0.82L76.17,69c-0.16.11-.35,0.24-0.52,0.38a1.83,1.83,0,0,0-.54-1Z"/><polygon class="cls-3" points="40.47 103.97 41.42 105.21 42.12 104.61 41.16 103.37 40.47 103.97"/><path class="cls-3" d="M85.41,98.56l1,1.16a23.09,23.09,0,0,1,2.45,3.42l0.79-.47a23.62,23.62,0,0,0-2.54-3.53L86.13,98Z"/><path class="cls-3" d="M80.66,91.86c1.22,0.36,1.81,1.41,2.45,2.53l0.68,1.12L84.54,95l-0.64-1.07c-0.66-1.16-1.41-2.48-3-2.94Z"/><path class="cls-3" d="M88.41,89.87a1.84,1.84,0,0,0-.5,1.19,0.69,0.69,0,0,0,0,.11l-0.29.24,0.65,0.9a7,7,0,0,0,.57.84l0.46,0.62,0.76-.51,0,0L89.5,92.4l-0.41-.57a1.8,1.8,0,0,1-.19-0.39,1.46,1.46,0,0,1-.07-0.38,1.05,1.05,0,0,1,.32-0.65l0.52-.76-0.8-.45Z"/><path class="cls-3" d="M73.42,90.65C68.21,90.91,62.91,91,56.54,91H38.3l-4.2-.13c-4.05-.18-8.24-0.38-11.7.71l0.28,0.88c3.31-1,7.41-.85,11.39-0.66l4.25,0.13H56.54c6.37,0,11.69-.05,16.93-0.31a44.66,44.66,0,0,1,6.09.32c3.2,0.3,6.5.61,9,0L88.35,91c-2.36.59-5.58,0.29-8.7,0a46.67,46.67,0,0,0-6.23-.31"/><path class="cls-3" d="M50.5,114l-0.22.89a9.91,9.91,0,0,0,9.58-3.29L59.15,111a9,9,0,0,1-8.65,3"/><path class="cls-3" d="M85,83.6A2,2,0,0,1,83.4,84l-0.07.92a2.89,2.89,0,0,0,2.25-.66,3.91,3.91,0,0,0,1.13-2.53l-0.92,0A3,3,0,0,1,85,83.6"/><path class="cls-3" d="M54.29,66l0.31,0.87c0.53-.19,2.08-0.57,2.79-0.06l0.54-.75c-1.23-.88-3.39-0.14-3.64-0.06"/><path class="cls-4" d="M116,26.59C116,11.9,90,0,58,0S0,11.9,0,26.59,26,53.17,58,53.17a119.7,119.7,0,0,0,21.91-2c4.83,2.69,8.5,7.77,3.32,17.31,0,0,13.5-9.2,11.4-21.31,13-4.88,21.37-12.3,21.37-20.61"/><path class="cls-3" d="M18.8,19h0.07a5,5,0,0,1,4.57-2.13c2.57,0,4.83,1.4,4.83,3.84V34.87h-5.4V22.73c0-1.57-.31-2.79-2-2.79s-2,1.22-2,2.79V34.87H13.39V17.26H18.8V19Z"/><path class="cls-3" d="M37.77,32.08c-2,0-2.49-1.15-2.49-6.52,0-3.67.19-5.51,2.49-5.51s2.49,1.85,2.49,5.51c0,5.37-.49,6.52-2.49,6.52m0,3.14c7,0,7.9-3.87,7.9-9.38,0-4.82-.77-8.93-7.9-8.93s-7.9,4.11-7.9,8.93c0,5.51.92,9.38,7.9,9.38"/><path class="cls-3" d="M52.24,26.6c0-5.37.35-6.66,2.38-6.66s2.19,2.19,2.19,6.06-0.27,5.59-2.23,5.59c-2.61,0-2.34-3.36-2.34-5m4.83-9.34v2.06H57a4.48,4.48,0,0,0-4.33-2.41C47,16.9,47,21.82,47,25.69s-0.27,8.93,5.67,8.93a4.58,4.58,0,0,0,4.1-2.06h0.08v3.38c0,1.78-.66,2.93-2,2.93a2.14,2.14,0,0,1-1.8-.69,2.79,2.79,0,0,1-.46-1.78H47.25c0.12,4.29,3.57,5.23,7.6,5.23,7.44,0,7.35-4.81,7.35-6V17.26H57.07Z"/><path class="cls-3" d="M69,26.6c0-5.37.35-6.66,2.38-6.66s2.18,2.19,2.18,6.06-0.27,5.59-2.22,5.59c-2.61,0-2.34-3.36-2.34-5m4.83-9.34v2.06H73.73a4.48,4.48,0,0,0-4.33-2.41c-5.63,0-5.72,4.92-5.72,8.79s-0.27,8.93,5.67,8.93a4.56,4.56,0,0,0,4.1-2.06h0.08v3.38c0,1.78-.66,2.93-2,2.93a2.16,2.16,0,0,1-1.8-.69,2.81,2.81,0,0,1-.46-1.78H64c0.12,4.29,3.56,5.23,7.59,5.23,7.44,0,7.37-4.81,7.37-6V17.26H73.8Z"/><rect class="cls-3" x="81.26" y="17.26" width="5.41" height="17.61"/><path class="cls-3" d="M94.63,19h0.08a5,5,0,0,1,4.57-2.13c2.57,0,4.83,1.4,4.83,3.84V34.87h-5.4V22.73c0-1.57-.31-2.79-2-2.79s-2,1.22-2,2.79V34.87h-5.4V17.26h5.4V19Z"/><path class="cls-3" d="M87.1,12.75c0,1.34-1.42,2.43-3.17,2.43s-3.18-1.09-3.18-2.43,1.42-2.44,3.18-2.44,3.17,1.09,3.17,2.44"/></svg>