<svg id="Layer_1" data-name="Layer 1" xmlns="http://www.w3.org/2000/svg" xmlns:xlink="http://www.w3.org/1999/xlink" viewBox="0 0 46.19 47.25"><defs><style>.cls-1{fill:none;}.cls-2{clip-path:url(#clip-path);}.cls-3{fill:gray;}</style><clipPath id="clip-path"><rect class="cls-1" width="46.19" height="47.25"/></clipPath></defs><title>icons</title><g class="cls-2"><path class="cls-3" d="M41.77,32.58a7.1,7.1,0,0,1-3.66,6.24,8.61,8.61,0,0,0-1-2.06,7.88,7.88,0,0,0-3.79-3.16A6.33,6.33,0,0,0,35,29.52,1,1,0,0,0,33,29.44a4.4,4.4,0,0,1-1.6,3.18,6.71,6.71,0,0,1-4.09,1.72,1,1,0,1,0-.16,2.06h0.3a8.34,8.34,0,0,0,3.78-1.15h0.12a5.41,5.41,0,0,1,4.06,2.62,5.85,5.85,0,0,1,.92,2.2,6.8,6.8,0,0,1-11.89,1.48l-0.06-13.4a5,5,0,0,0,1.74.62,4,4,0,0,0,0,2.3,1,1,0,0,0,1,.72,1,1,0,0,0,.31,0,1,1,0,0,0,.67-1.3,2.12,2.12,0,0,1,.21-1.71,3.51,3.51,0,0,1,1.62-1.53,1,1,0,0,0-.55-2,4.89,4.89,0,0,0-2.12,1.46,2.48,2.48,0,0,1-1.93-.33,3.52,3.52,0,0,1-1-.86L24.25,4.59a5.43,5.43,0,0,1,8.85,1A7.1,7.1,0,0,1,38.89,15a4,4,0,0,1-7.27-2.38,6.82,6.82,0,0,0,3-2.6,1,1,0,0,0-1.79-1c-1,1.7-4.31,2.89-6.25,2.22a1,1,0,1,0-.67,2,6.06,6.06,0,0,0,2,.3,8.26,8.26,0,0,0,1.64-.18,5.85,5.85,0,0,0,5.57,5.47l0.07,0.07a2.16,2.16,0,1,1-3,3.06,1,1,0,1,0-1.45,1.47,4.33,4.33,0,0,0,3.09,1.36,4.26,4.26,0,0,0,3-1.28,4.12,4.12,0,0,0,.72-5,5.84,5.84,0,0,0,2.72-1.85,9.29,9.29,0,0,1,.9,13.12,7.06,7.06,0,0,1,.62,2.88M16.38,44.5a6.81,6.81,0,0,1-6.57-4.91h0l0,0a4,4,0,0,1,.52-4.07A4.19,4.19,0,0,1,14.2,34a4,4,0,0,1,3,2.77,1,1,0,1,0,1.94-.71,6.67,6.67,0,0,0-2-2.86,5.2,5.2,0,0,0,2.43-2,0.78,0.78,0,0,0-1.35-.78,4.48,4.48,0,0,1-3,1.74A5.78,5.78,0,0,0,14.55,32a6.3,6.3,0,0,0-5.82,2.14,5.76,5.76,0,0,0-1.28,4.33A7.1,7.1,0,0,1,5.1,29.86a9.29,9.29,0,0,1,.63-13,7.37,7.37,0,0,0,2.11,2.64A5.29,5.29,0,0,0,8,27a5.45,5.45,0,0,0,3.83,1.6,5.55,5.55,0,0,0,3.95-1.78,1,1,0,1,0-1.47-1.45,3.25,3.25,0,0,1-4.85.16,3.25,3.25,0,0,1,.12-4.85l0.09-.11a7.74,7.74,0,0,0,2.78.5,8.28,8.28,0,0,0,3.07-.61,1,1,0,1,0-.78-1.91,6,6,0,0,1-4.63,0,5.26,5.26,0,0,1-2.71-2.88h0a7.1,7.1,0,0,1,5.49-9.91A5.42,5.42,0,0,1,21.78,4.6l0,5.86a3.78,3.78,0,0,1-3.62,2.35,3.86,3.86,0,0,1-4-4.17,1,1,0,1,0-2.06,0,6.13,6.13,0,0,0,1.91,4.66,6,6,0,0,0,4.14,1.56,6.16,6.16,0,0,0,3.62-1.18l0.12,27.89a6.79,6.79,0,0,1-5.55,2.92m29.81-21a12.08,12.08,0,0,0-4.31-9.18,9.86,9.86,0,0,0-7.1-11.21A8.2,8.2,0,0,0,23,1.95,8.2,8.2,0,0,0,11.24,3.26a9.86,9.86,0,0,0-7,11.27A12,12,0,0,0,2,30.38,9.87,9.87,0,0,0,7.71,41.77a9.55,9.55,0,0,0,15.48,2.6,9.55,9.55,0,0,0,15.45-2.74A9.87,9.87,0,0,0,44.22,30.2a12,12,0,0,0,2-6.65"/></g></svg>