<svg id="Layer_1" data-name="Layer 1" xmlns="http://www.w3.org/2000/svg" xmlns:xlink="http://www.w3.org/1999/xlink" viewBox="0 0 48.32 47.06"><defs><style>.cls-1{fill:none;}.cls-2{clip-path:url(#clip-path);}.cls-3{fill:#e54c3a;}.cls-4{fill:gray;}</style><clipPath id="clip-path"><rect class="cls-1" width="48.32" height="47.06"/></clipPath></defs><title>icons</title><g class="cls-2"><path class="cls-3" d="M31.4,23.79l0.69,1A0.81,0.81,0,0,1,31.87,26l-1.27.85a0.8,0.8,0,0,1-1.11-.23l-0.68-1a6.49,6.49,0,0,1-2.13.43l-0.23,1.18a0.81,0.81,0,0,1-.95.63L24,27.51a0.81,0.81,0,0,1-.63-0.95l0.24-1.18a6.78,6.78,0,0,1-1.8-1.22l-1,.67a0.8,0.8,0,0,1-1.11-.22l-0.85-1.27a0.8,0.8,0,0,1,.23-1.11l1-.69a6.51,6.51,0,0,1-.38-2.1l-1.26-.25a0.8,0.8,0,0,1-.63-0.94l0.3-1.5a0.8,0.8,0,0,1,.94-0.63l1.31,0.26a6.78,6.78,0,0,1,1.18-1.7L20.8,13.53A0.8,0.8,0,0,1,21,12.42l1.27-.85a0.8,0.8,0,0,1,1.11.23L24.19,13a6.51,6.51,0,0,1,2-.38l0.28-1.39a0.8,0.8,0,0,1,.94-0.63l1.5,0.3a0.81,0.81,0,0,1,.63.95l-0.28,1.39a6.74,6.74,0,0,1,1.68,1.12l1.17-.78a0.81,0.81,0,0,1,1.12.22L34.06,15a0.8,0.8,0,0,1-.22,1.11l-1.14.76a6.88,6.88,0,0,1,.43,2l1.31,0.27a0.8,0.8,0,0,1,.63.94l-0.3,1.5a0.81,0.81,0,0,1-.95.63L32.56,22a6.58,6.58,0,0,1-1.16,1.79m-5.64-1.16A3.52,3.52,0,1,0,23,18.49a3.52,3.52,0,0,0,2.76,4.14"/><path class="cls-4" d="M40.43,17.13a0.85,0.85,0,1,1-1.2-.05,0.85,0.85,0,0,1,1.2.05"/><path class="cls-4" d="M13.87,45.1H34.45a1.25,1.25,0,0,1,1.24,1.24v0.61a0.87,0.87,0,0,1,0,.11H12.63s0-.08,0-0.11V46.34a1.24,1.24,0,0,1,1.24-1.24"/><path class="cls-3" d="M41.16,19.2a2,2,0,1,0-2.85-.13,2,2,0,0,0,2.85.13m-0.67,3a0.46,0.46,0,0,1-.49.44l-0.87,0a0.45,0.45,0,0,1-.43-0.48l0-.72a4.06,4.06,0,0,1-1.1-.53l-0.54.49a0.46,0.46,0,0,1-.65,0l-0.59-.65a0.46,0.46,0,0,1,0-.65l0.57-.52a3.87,3.87,0,0,1-.38-1.12l-0.79,0a0.46,0.46,0,0,1-.43-0.48l0-.87a0.47,0.47,0,0,1,.48-0.44l0.8,0a4.08,4.08,0,0,1,.5-1.05L36.11,15a0.46,0.46,0,0,1,0-.65l0.65-.59a0.46,0.46,0,0,1,.65,0L38,14.37a4,4,0,0,1,1.09-.4l0-.8a0.47,0.47,0,0,1,.49-0.44l0.87,0a0.46,0.46,0,0,1,.44.49l0,0.79a3.79,3.79,0,0,1,1.08.49L42.52,14a0.46,0.46,0,0,1,.65,0l0.59,0.64a0.46,0.46,0,0,1,0,.65l-0.55.49A4.07,4.07,0,0,1,43.62,17l0.72,0a0.47,0.47,0,0,1,.44.48l0,0.88a0.46,0.46,0,0,1-.48.44l-0.7,0A3.79,3.79,0,0,1,43,19.91l0.47,0.51a0.46,0.46,0,0,1,0,.65l-0.65.59a0.46,0.46,0,0,1-.65,0l-0.47-.51a3.92,3.92,0,0,1-1.18.42Z"/></g><rect class="cls-3" x="18.78" y="38.76" width="10.76" height="5.81"/><g class="cls-2"><path class="cls-4" d="M46.55,38.15H1.77A1.84,1.84,0,0,1,0,36.26V1.89A1.83,1.83,0,0,1,1.77,0H46.55a1.83,1.83,0,0,1,1.76,1.89V36.26a1.83,1.83,0,0,1-1.76,1.89M2.14,33.25h44V1.43h-44V33.25Zm22,1.13a1.44,1.44,0,1,0,1.44,1.44,1.44,1.44,0,0,0-1.44-1.44"/><path class="cls-3" d="M12.6,32.26a9.46,9.46,0,0,0-9.47-9.47V13.37H4.81a1.76,1.76,0,0,1,1.75,1.75v3.11a14.69,14.69,0,0,1,4.1,1.67l2.18-2.18a1.74,1.74,0,0,1,2.47,0l2.37,2.36a1.75,1.75,0,0,1,0,2.48l-2.12,2.12a14.64,14.64,0,0,1,1.79,4.15h2.93A1.75,1.75,0,0,1,22,30.59v1.67H12.6Z"/><path class="cls-4" d="M26.74,17.73A1.49,1.49,0,1,1,25,18.89a1.49,1.49,0,0,1,1.75-1.17"/></g></svg>