<svg id="Layer_1" data-name="Layer 1" xmlns="http://www.w3.org/2000/svg" xmlns:xlink="http://www.w3.org/1999/xlink" viewBox="0 0 49.09 47.11"><defs><style>.cls-1{fill:none;}.cls-2{clip-path:url(#clip-path);}.cls-3{fill:gray;}.cls-4{fill:#e54c3a;}</style><clipPath id="clip-path"><rect class="cls-1" width="49.09" height="47.11"/></clipPath></defs><title>icons</title><g class="cls-2"><path class="cls-3" d="M46.71,13.06H34V6.73H46.71v6.33Zm0,7.92H45.37l-1,1.58h2.34V28.9H34V22.56H40L40.59,21H34V14.65H46.71V21Zm0,15.83H45.37l-1,1.58h2.34v6.33H34V38.4H40l0.63-1.58H34V30.48H46.71v6.33ZM32.46,13.06H26.13V6.73h6.33v6.33Zm0,7.92H26.13V14.65h6.33V21Zm0,3.17H5.54v3.17H32.46V28.9H26.13V28.1H24.54V28.9H18.21V28.1H16.63V28.9H10.29V28.1H8.71V28.9H2.38V22.56H8.71v0.79h1.58V22.56h6.33v0.79h1.58V22.56h6.33v0.79h1.58V22.56h6.33v1.58Zm0,12.67H26.13V36H24.54v0.79H18.21V36H16.63v0.79H10.29V30.48h6.33v0.79h1.58V30.48h6.33v0.79h1.58V30.48h6.33v6.33Zm0,3.17H21.38v3.17H32.46v1.58H26.13V43.94H24.54v0.79H18.21V38.4h6.33v0.79h1.58V38.4h6.33V40ZM16.63,44.73H10.29V38.4h6.33v6.33ZM8.71,36.81H2.37V30.48H8.71v6.33Zm0,7.92H2.37V38.4H8.71v6.33ZM2.38,14.65H8.71V21H2.38V14.65Zm14.25,5.54V21H10.29V14.65h6.33v0.79h1.58V14.65h6.33V21H18.21V20.19H16.63ZM2.38,6.73H8.71V7.52h1.58V6.73h6.33V7.52h1.58V6.73h6.33v6.33H18.21V12.27H16.63v0.79H10.29V12.27H8.71v0.79H2.38V6.73ZM3.26,2.17h7.21c0.92,0,1.08,1.62.48,2.18H2.78c-0.6-.57-0.44-2.18.48-2.18m40.06,0h2.52c0.92,0,1.08,1.63.48,2.19H42.84c-0.6-.56-0.44-2.19.48-2.19M48.07,0H1A1,1,0,0,0,0,1V5.5s0,0,0,0V45.92a1.19,1.19,0,0,0,1.19,1.19H47.9a1.19,1.19,0,0,0,1.19-1.19V1a1,1,0,0,0-1-1"/></g><rect class="cls-3" x="5.54" y="8.31" width="15.83" height="3.17"/><rect class="cls-3" x="13.46" y="16.23" width="7.92" height="3.17"/><rect class="cls-3" x="13.46" y="32.06" width="15.83" height="3.17"/><polygon class="cls-4" points="38.6 23.75 36.62 24.74 40.18 27.71 44.93 20.19 41.76 20.19 39.78 25.14 38.6 23.75"/><polygon class="cls-4" points="38.6 39.59 36.62 40.58 40.18 43.54 44.93 36.02 41.76 36.02 39.78 40.97 38.6 39.59"/></svg>