<svg id="Layer_1" data-name="Layer 1" xmlns="http://www.w3.org/2000/svg" xmlns:xlink="http://www.w3.org/1999/xlink" viewBox="0 0 40.85 33.6"><defs><style>.cls-1{fill:none;}.cls-2{clip-path:url(#clip-path);}.cls-3{fill:gray;}.cls-4{fill:#e54c3a;}</style><clipPath id="clip-path"><rect class="cls-1" width="40.85" height="33.6"/></clipPath></defs><title>icons</title><g class="cls-2"><path class="cls-3" d="M9.09,10.21a0.31,0.31,0,0,1,0,.13L9,10.41l-0.2.12a0.22,0.22,0,0,1-.21,0l-0.19-.12-0.12-.07a0.33,0.33,0,0,1,0-.13V9.92A0.12,0.12,0,0,1,8.35,9.8H9a0.12,0.12,0,0,1,.12.12v0.29Zm3.51,4.3c0-3.59-.72-5.48-3.13-6a2.75,2.75,0,1,0-1.64,0A3.52,3.52,0,0,0,5,11.5a3.41,3.41,0,0,1,3.17-.21l0.09-.59a0.07,0.07,0,0,1,.12-0.06l0.19,0.11a0.22,0.22,0,0,0,.21,0L9,10.65a0.07,0.07,0,0,1,.12.06l0.2,1.4a3.41,3.41,0,0,1,.9,2.31s0,0.06,0,.09h2.42Z"/><path class="cls-3" d="M33,31.67h7.89c0-3.59-.72-5.48-3.13-6a2.75,2.75,0,1,0-1.64,0c-2.41.54-3.13,2.42-3.13,6"/><path class="cls-3" d="M30.13,23.07h3.35v0a3.41,3.41,0,0,1,4.17-3.33A3.43,3.43,0,0,0,34.89,17a2.75,2.75,0,1,0-1.64,0c-2.41.53-3.13,2.42-3.13,6"/><path class="cls-3" d="M7.89,31.67H0c0-3.59.72-5.48,3.13-6a2.75,2.75,0,1,1,1.64,0c2.41,0.54,3.13,2.42,3.13,6"/><path class="cls-3" d="M10.71,23.07H7.36v0a3.41,3.41,0,0,0-4.17-3.33A3.43,3.43,0,0,1,6,17a2.75,2.75,0,1,1,1.64,0c2.41,0.53,3.13,2.42,3.13,6"/></g><polygon class="cls-3" points="13.63 15.49 8.2 32.34 8.2 33.6 32.67 33.6 32.67 32.34 27.24 15.49 13.63 15.49"/><polygon class="cls-4" points="25 3.82 24.54 6.13 23.93 5.49 20.02 9.09 19.04 7.28 16.46 9.03 16.46 7.78 19.22 5.75 20.26 7.65 23.31 4.83 22.66 4.14 25 3.82"/><g class="cls-2"><path class="cls-3" d="M26.6,10.18a0.62,0.62,0,0,1-.64.6H15.57a0.62,0.62,0,0,1-.64-0.6V2.73a0.62,0.62,0,0,1,.64-0.6H26a0.62,0.62,0,0,1,.64.6v7.46Zm-5.27,3.47a0.49,0.49,0,1,1-.49-0.49,0.49,0.49,0,0,1,.49.49M28.29,0H13.24a0.6,0.6,0,0,0-.6.6V1.25a0.6,0.6,0,0,0,.6.59H14v9.24a0.6,0.6,0,0,0,.6.6h5.9v0.91a1.12,1.12,0,1,0,.63,0V11.68h5.78a0.6,0.6,0,0,0,.6-0.6V1.85h0.78a0.6,0.6,0,0,0,.6-0.59V0.59a0.6,0.6,0,0,0-.6-0.6"/></g></svg>