<svg id="Layer_1" data-name="Layer 1" xmlns="http://www.w3.org/2000/svg" xmlns:xlink="http://www.w3.org/1999/xlink" viewBox="0 0 52.38 33.43"><defs><style>.cls-1{fill:none;}.cls-2{clip-path:url(#clip-path);}.cls-3{fill:gray;}</style><clipPath id="clip-path"><rect class="cls-1" width="52.38" height="33.43"/></clipPath></defs><title>icons</title><g class="cls-2"><path class="cls-3" d="M31.4,30.8c1.57,0.43,3-1,3.31-2.1a2.43,2.43,0,0,0,3.38-2.91c1.84-.31,3.68-3.08,2-4.68l-0.93-.92,2.92-2c-1.2-4.16-2.92-9-6-12.11L26.57,2.79h0c-2.1.7-3.88,2-6,2.72l-0.07,0-1.19,6.52-0.86,2a1.09,1.09,0,0,0,.71,1,2.72,2.72,0,0,0,4-1.07l1.46-3.47L26.07,10,39,22.3c0.65,0.63-1,2.34-1.72,1.6l-7.55-7.41-0.91.92,7.72,8.11c0.81,0.79-.61,2.66-1.88,1.41l-7.79-7.65-0.92.94c2.43,2.38,4.58,5,7,7.41,0.76,0.74-1,2.28-1.68,1.61L24.15,22.3l-1,1,6.4,6.7c0.6,0.59-.87,2.29-1.71,1.62l-1.39-1A2.27,2.27,0,0,0,24,27.1a2.14,2.14,0,0,0,.06-2,2.26,2.26,0,0,0-2.64-1.29,2.33,2.33,0,0,0-1.59-3.41,2.1,2.1,0,0,0-2.06.72l-0.1.11a2.27,2.27,0,0,0-1.71-2.66,2.16,2.16,0,0,0-2.2.69l-0.6.67L9.59,17.16,14.76,5.71l5.08,0.85L20,5.4,15.47,4.13l-0.12-.35L7.36,0,0,15.72l7.61,4.89,1.26-1.88L12,21.23l-0.47.53a2.27,2.27,0,0,0,2.74,3.52,2.29,2.29,0,0,0,3.29,2.66,2.25,2.25,0,0,0,1.37,2.65,2.15,2.15,0,0,0,2-.16,2.26,2.26,0,0,0,1.65,2.78,2.16,2.16,0,0,0,2.22-.68l0.56-.62,1.47,1a2.6,2.6,0,0,0,3.3-.17,3.35,3.35,0,0,0,1.27-2m5.33-26.1,9.45-4.53,6.19,17.67L44,20.48c-1.7-6-3.24-10.84-7.27-15.79"/></g></svg>