<svg id="Layer_1" data-name="Layer 1" xmlns="http://www.w3.org/2000/svg" xmlns:xlink="http://www.w3.org/1999/xlink" viewBox="0 0 44.72 40.65"><defs><style>.cls-1{fill:none;}.cls-2{clip-path:url(#clip-path);}.cls-3{fill:#e54c3a;}.cls-4{fill:gray;}</style><clipPath id="clip-path"><rect class="cls-1" width="44.72" height="40.65"/></clipPath></defs><title>JobBoardBA</title><g class="cls-2"><path class="cls-3" d="M40.63,27.73H35.4V26.38h4.3l0,0,0.41,0h0.26a3,3,0,0,0,.09-6.05l-0.73,0,0.08-.73a7.78,7.78,0,0,0,.06-0.88,7.38,7.38,0,0,0-7.34-7.41,7.22,7.22,0,0,0-2,.28l-0.74.21L29.73,11A11.07,11.07,0,0,0,7.68,12.54v0.68l-0.59.07a6.57,6.57,0,0,0,.74,13.09H9.52v1.35H7.83A7.93,7.93,0,0,1,6.36,12,12.4,12.4,0,0,1,30.94,10.1a8.45,8.45,0,0,1,1.62-.16,8.73,8.73,0,0,1,8.67,8.76q0,0.18,0,.36a4.38,4.38,0,0,1-.6,8.67h0Z"/><path class="cls-4" d="M21.28,39.3h2.45L24,37.87l0.42-.09a10.59,10.59,0,0,0,1.67-.52l0.43-.17,1,1.1L29.66,37l-0.5-1.55,0.31-.29a10.92,10.92,0,0,0,1.08-1.19l0.29-.37,1.58,0.51,1.22-2.14L32.29,30.7l0.12-.4a10.89,10.89,0,0,0,.3-1.4l0.07-.46L34.6,28V25.56l-2-.43-0.1-.41a10.5,10.5,0,0,0-.37-1.2L32,23.09,33.5,21.7l-1.22-2.14-2.06.67-0.29-.31a10.8,10.8,0,0,0-.82-0.8l-0.34-.29,0.66-2.06L27.3,15.54,25.82,17.2l-0.41-.13a11.18,11.18,0,0,0-1.09-.28l-0.43-.09-0.45-2.12H21L20.55,16.7l-0.43.09a10.35,10.35,0,0,0-1.15.31l-0.41.13-1.38-1.54-2.12,1.24,0.62,1.93-0.34.29a10.63,10.63,0,0,0-.95.94l-0.29.32-1.79-.59L11.08,22l1.34,1.23-0.15.43a10.6,10.6,0,0,0-.43,1.46l-0.09.43-1.62.35v2.47l1.57,0.34,0.08,0.45a10.91,10.91,0,0,0,.41,1.64l0.14,0.42-1.1,1,1.22,2.14,1.38-.45,0.29,0.35a10.75,10.75,0,0,0,1.27,1.28l0.34,0.29L15.31,37.1l2.12,1.24,0.94-1.05,0.42,0.15a10.53,10.53,0,0,0,1.76.44L21,37.95Zm3.53,1.35H20.2l-0.33-1.53C19.5,39,19.13,39,18.77,38.85l-1.08,1.21-4-2.33,0.48-1.5c-0.27-.25-0.54-0.52-0.79-0.8l-1.56.51-2.3-4,1.26-1.14c-0.09-.32-0.18-0.64-0.24-1l-1.75-.38V24.75l1.84-.4c0.06-.25.14-0.51,0.23-0.78L9.39,22.22l2.3-4,2,0.66,0.44-.43L13.46,16.3l4-2.33L19,15.68l0.45-.12,0.49-2.33h4.6L25,15.56l0.38,0.1L27,13.83l4,2.33L30.3,18.41l0.3,0.29,2.3-.75,2.3,4-1.65,1.51c0.06,0.17.11,0.34,0.15,0.51l2.23,0.48v4.65l-2,.43c0,0.24-.09.47-0.15,0.7l1.54,1.4-2.31,4-1.73-.56c-0.19.23-.4,0.45-0.61,0.67l0.57,1.79-4,2.33-1.1-1.23c-0.34.12-.68,0.23-1,0.32Z"/><path class="cls-4" d="M22.22,23.09a4.21,4.21,0,1,0,4.17,4.21,4.19,4.19,0,0,0-4.17-4.21m0,9.77a5.56,5.56,0,1,1,5.5-5.56,5.54,5.54,0,0,1-5.5,5.56"/><path class="cls-4" d="M22.22,20.39a6.91,6.91,0,1,0,6.84,6.91,6.88,6.88,0,0,0-6.84-6.91m0,15.17A8.26,8.26,0,1,1,30.4,27.3a8.23,8.23,0,0,1-8.17,8.26"/></g></svg>