<svg id="Layer_1" data-name="Layer 1" xmlns="http://www.w3.org/2000/svg" xmlns:xlink="http://www.w3.org/1999/xlink" viewBox="0 0 47.54 32.11"><defs><style>.cls-1{fill:none;}.cls-2{clip-path:url(#clip-path);}.cls-3{fill:gray;}</style><clipPath id="clip-path"><rect class="cls-1" width="47.54" height="32.11"/></clipPath></defs><title>JobBoardBA</title><g class="cls-2"><path class="cls-3" d="M22.25,22.21L12,17.51a1.05,1.05,0,0,0-1.6,1l-0.36,6.9a2.84,2.84,0,0,0,1.38,2.45c2.74,1.42,8.69,4.28,12.3,4.28s9.67-2.87,12.44-4.29a2.77,2.77,0,0,0,1.37-2.44l-0.45-6.91a1.07,1.07,0,0,0-1.62-1L25.28,22.21a4.12,4.12,0,0,1-3,0"/><path class="cls-3" d="M46.88,8.71L25.32,0.25a4.91,4.91,0,0,0-3.1,0L0.65,8.71C-0.2,9.05-.22,9.64.62,10l3.73,1.72v8a1.09,1.09,0,0,0-.58,1V28a1.09,1.09,0,1,0,2.17,0V20.66a1.09,1.09,0,0,0-.58-1V12.21L22.25,20a4.1,4.1,0,0,0,3,0L46.92,10c0.83-.39.82-1,0-1.31"/></g></svg>